<svg width="290" height="290" viewBox="0 0 290 290" fill="none" xmlns="http://www.w3.org/2000/svg">
<circle cx="145" cy="145" r="145" fill="#F74C4C"/>
<path d="M135.514 165.236L138.556 171.319C137.42 173.753 135.838 176.186 133.81 178.62C131.783 180.972 129.674 183.081 127.483 184.947L88.9127 181.783L83.6807 184.947C80.2738 183.73 77.6376 181.905 75.7719 179.471L80.5172 142.117L79.0571 97.8281L82.5856 95.3946C83.4779 95.5569 84.7352 96.0436 86.3575 96.8547C88.061 97.5848 89.6427 98.3959 91.1028 99.2882L126.875 95.3946C129.146 96.7736 131.134 98.3554 132.837 100.14C134.622 101.924 136.284 103.912 137.826 106.102L136.122 112.672L94.023 111.577L93.293 135.06L120.67 131.045C123.265 132.424 125.415 133.844 127.118 135.304C128.903 136.764 130.404 138.548 131.62 140.657L129.795 147.715L93.0496 146.498V170.346L135.514 165.236Z" fill="white"/>
<path d="M213.777 166.939C214.588 167.912 215.359 169.413 216.089 171.441C216.9 173.388 217.387 175.294 217.549 177.16L204.53 184.947C201.042 184.055 197.554 182.554 194.066 180.445C190.659 178.336 188.023 176.267 186.157 174.239C185.184 172.617 184.453 169.9 183.967 166.087C183.561 162.275 183.521 157.935 183.845 153.068C182.628 154.285 181.452 155.542 180.317 156.84C179.262 158.057 178.208 159.355 177.153 160.734L170.826 183C169.041 183.487 166.77 183.73 164.012 183.73C161.254 183.73 158.942 183.487 157.077 183C155.941 181.621 154.927 179.877 154.035 177.768C153.224 175.578 152.697 173.469 152.453 171.441C155.292 167.791 158.131 164.384 160.97 161.22C163.809 158.057 166.649 155.056 169.488 152.216C169.325 147.836 168.879 144.267 168.149 141.509C167.5 138.751 166.567 136.358 165.351 134.33L153.427 138.102C152.534 137.291 151.642 135.79 150.75 133.6C149.857 131.41 149.33 129.382 149.168 127.517L163.769 120.216C167.257 121.027 170.258 122.406 172.773 124.353C175.287 126.219 177.437 128.449 179.222 131.045L179.708 142.848C181.087 141.55 182.507 140.292 183.967 139.076C185.427 137.859 186.928 136.642 188.469 135.425C189.28 133.235 190.213 131.045 191.267 128.855C192.403 126.584 193.741 124.515 195.282 122.65C197.148 122.163 198.892 121.879 200.514 121.798C202.218 121.636 203.962 121.757 205.746 122.163C207.125 123.542 208.545 125.326 210.005 127.517C211.465 129.626 212.357 131.937 212.682 134.452C205.787 137.697 199.947 140.941 195.161 144.186C194.836 149.134 195.12 153.839 196.013 158.3C196.905 162.68 198.892 166.939 201.975 171.076L213.777 166.939Z" fill="#554D4D"/>
</svg>
