<svg width="801" height="258" viewBox="0 0 801 258" fill="none" xmlns="http://www.w3.org/2000/svg">
<circle cx="129" cy="129" r="129" fill="#F74C4C"/>
<circle cx="175" cy="165" r="63" fill="white"/>
<path d="M111.514 163.236L114.556 169.319C113.42 171.753 111.838 174.186 109.81 176.62C107.783 178.972 105.674 181.081 103.483 182.947L64.9127 179.783L59.6807 182.947C56.2738 181.73 53.6376 179.905 51.7719 177.471L56.5172 140.117L55.0571 95.8281L58.5856 93.3946C59.4779 93.5569 60.7352 94.0436 62.3575 94.8547C64.061 95.5848 65.6427 96.3959 67.1028 97.2882L102.875 93.3946C105.146 94.7736 107.134 96.3554 108.837 98.1399C110.622 99.9245 112.284 101.912 113.826 104.102L112.122 110.672L70.023 109.577L69.293 133.06L96.6696 129.045C99.2654 130.424 101.415 131.844 103.118 133.304C104.903 134.764 106.404 136.548 107.62 138.657L105.795 145.715L69.0496 144.498V168.346L111.514 163.236Z" fill="white"/>
<path d="M189.777 164.939C190.588 165.912 191.359 167.413 192.089 169.441C192.9 171.388 193.387 173.294 193.549 175.16L180.53 182.947C177.042 182.055 173.554 180.554 170.066 178.445C166.659 176.336 164.023 174.267 162.157 172.239C161.184 170.617 160.453 167.9 159.967 164.087C159.561 160.275 159.521 155.935 159.845 151.068C158.628 152.285 157.452 153.542 156.317 154.84C155.262 156.057 154.208 157.355 153.153 158.734L146.826 181C145.041 181.487 142.77 181.73 140.012 181.73C137.254 181.73 134.942 181.487 133.077 181C131.941 179.621 130.927 177.877 130.035 175.768C129.224 173.578 128.697 171.469 128.453 169.441C131.292 165.791 134.131 162.384 136.97 159.22C139.809 156.057 142.649 153.056 145.488 150.216C145.325 145.836 144.879 142.267 144.149 139.509C143.5 136.751 142.567 134.358 141.351 132.33L129.427 136.102C128.534 135.291 127.642 133.79 126.75 131.6C125.857 129.41 125.33 127.382 125.168 125.517L139.769 118.216C143.257 119.027 146.258 120.406 148.773 122.353C151.287 124.219 153.437 126.449 155.222 129.045L155.708 140.848C157.087 139.55 158.507 138.292 159.967 137.076C161.427 135.859 162.928 134.642 164.469 133.425C165.28 131.235 166.213 129.045 167.267 126.855C168.403 124.584 169.741 122.515 171.282 120.65C173.148 120.163 174.892 119.879 176.514 119.798C178.218 119.636 179.962 119.757 181.746 120.163C183.125 121.542 184.545 123.326 186.005 125.517C187.465 127.626 188.357 129.937 188.682 132.452C181.787 135.697 175.947 138.941 171.161 142.186C170.836 147.134 171.12 151.839 172.013 156.3C172.905 160.68 174.892 164.939 177.975 169.076L189.777 164.939Z" fill="#554D4D"/>
<path d="M342.412 148.629C342.412 151.833 342.478 156.313 342.608 162.068C342.739 167.954 342.805 172.531 342.805 175.801C342.805 177.632 342.281 179.071 341.235 180.117C340.189 181.163 338.717 181.687 336.821 181.687C334.924 181.687 333.42 181.163 332.309 180.117C331.262 179.071 330.739 177.73 330.739 176.095C330.674 169.883 330.641 160.858 330.641 149.021C330.641 141.239 330.379 135.386 329.856 131.463C329.398 127.539 328.745 125.577 327.894 125.577C326.652 125.577 324.461 129.795 321.322 138.231C320.08 141.632 318.674 146.7 317.104 153.436C316.385 156.378 314.194 157.85 310.532 157.85C308.635 157.85 307.131 157.523 306.019 156.869C304.973 156.15 304.221 155.103 303.763 153.73L302.684 149.708C301.115 143.953 299.97 140.095 299.251 138.133C298.205 135.386 296.995 132.607 295.622 129.795C294.248 126.983 293.3 125.577 292.777 125.577C291.404 125.577 290.586 133.228 290.324 148.531C290.259 150.754 290.226 153.828 290.226 157.752L290.324 176.291C290.324 177.796 289.769 179.005 288.657 179.921C287.545 180.771 286.008 181.196 284.046 181.196C282.085 181.196 280.613 180.706 279.632 179.725C278.651 178.678 278.161 177.011 278.161 174.722C278.161 171.583 278.226 167.136 278.357 161.381L278.455 148.335C278.455 135.19 279.436 125.708 281.398 119.888C283.425 114.002 286.662 111.059 291.109 111.059C294.706 111.059 297.747 112.661 300.232 115.866C302.782 119.07 304.744 122.7 306.118 126.754C307.491 130.743 308.897 135.648 310.336 141.468C312.428 133.098 315.011 125.937 318.085 119.986C321.159 114.035 325.213 111.059 330.249 111.059C333.388 111.059 335.84 112.498 337.606 115.375C339.371 118.253 340.581 122.405 341.235 127.833C341.954 133.261 342.347 140.193 342.412 148.629ZM402.415 171.583C403.527 171.779 404.377 172.204 404.965 172.858C405.619 173.447 405.946 174.526 405.946 176.095C405.946 177.469 405.587 178.613 404.867 179.529C404.148 180.444 403.2 180.902 402.023 180.902C399.211 180.902 397.085 180.542 395.647 179.823C394.208 179.104 392.933 177.763 391.821 175.801C389.074 179.921 384.104 181.981 376.911 181.981C369.39 181.981 363.766 179.79 360.038 175.409C356.311 170.962 354.447 165.142 354.447 157.948C354.447 153.174 355.395 148.858 357.292 145C359.254 141.141 362.033 138.1 365.63 135.877C369.227 133.653 373.379 132.542 378.088 132.542C380.769 132.542 383.189 133.098 385.347 134.209C387.505 135.256 389.14 136.662 390.251 138.427L390.546 136.367C390.611 135.452 391.036 134.667 391.821 134.013C392.606 133.359 393.848 133.032 395.548 133.032C397.51 133.032 398.916 133.49 399.766 134.405C400.682 135.321 401.042 136.465 400.845 137.839C400.453 139.931 400.028 143.626 399.57 148.923C399.374 151.539 399.276 154.907 399.276 159.027V163.637C399.276 166.384 399.439 168.379 399.766 169.621C400.093 170.798 400.976 171.452 402.415 171.583ZM387.701 163.539C387.766 160.727 387.799 156.64 387.799 151.278C387.799 148.269 386.818 145.948 384.856 144.313C382.96 142.678 380.769 141.861 378.284 141.861C374.687 141.861 371.81 143.43 369.652 146.569C367.494 149.708 366.415 153.468 366.415 157.85C366.415 162.101 367.363 165.632 369.259 168.444C371.156 171.256 373.935 172.662 377.597 172.662C380.605 172.662 383.025 171.877 384.856 170.308C386.687 168.738 387.636 166.482 387.701 163.539ZM443.044 130.972C448.668 130.972 453.017 132.967 456.091 136.956C459.164 140.88 460.701 146.765 460.701 154.613L460.603 177.076C460.603 178.384 460.047 179.365 458.935 180.019C457.824 180.673 456.418 181 454.717 181C453.017 181 451.578 180.706 450.401 180.117C449.224 179.529 448.636 178.646 448.636 177.469V154.515C448.636 149.479 448.08 145.882 446.968 143.724C445.856 141.501 443.992 140.389 441.377 140.389C438.892 140.389 436.897 141.436 435.393 143.528C433.889 145.555 432.712 148.923 431.861 153.632C431.404 156.509 431.175 159.779 431.175 163.441L431.273 176.684C431.273 178.123 430.717 179.234 429.605 180.019C428.559 180.738 427.12 181.098 425.289 181.098C423.458 181.098 421.987 180.706 420.875 179.921C419.829 179.136 419.305 178.057 419.305 176.684C419.305 165.697 419.077 154.842 418.619 144.117C418.619 143.07 418.455 142.155 418.128 141.37C417.801 140.585 417.409 139.866 416.951 139.212C416.559 138.558 416.297 138.1 416.166 137.839C415.774 137.316 415.578 136.694 415.578 135.975C415.578 134.798 416.265 133.686 417.638 132.64C419.077 131.593 420.417 131.07 421.66 131.07C422.314 131.07 422.935 131.266 423.524 131.659C424.112 132.051 424.766 132.738 425.485 133.719C427.055 135.811 427.84 137.773 427.84 139.604V140.389C429.017 137.708 430.815 135.484 433.235 133.719C435.72 131.888 438.99 130.972 443.044 130.972ZM518.614 171.583C519.726 171.779 520.576 172.204 521.164 172.858C521.818 173.447 522.145 174.526 522.145 176.095C522.145 177.469 521.786 178.613 521.066 179.529C520.347 180.444 519.399 180.902 518.222 180.902C515.41 180.902 513.284 180.542 511.845 179.823C510.407 179.104 509.132 177.763 508.02 175.801C505.273 179.921 500.303 181.981 493.11 181.981C485.589 181.981 479.965 179.79 476.237 175.409C472.51 170.962 470.646 165.142 470.646 157.948C470.646 153.174 471.594 148.858 473.491 145C475.453 141.141 478.232 138.1 481.829 135.877C485.426 133.653 489.578 132.542 494.287 132.542C496.968 132.542 499.388 133.098 501.546 134.209C503.704 135.256 505.339 136.662 506.45 138.427L506.745 136.367C506.81 135.452 507.235 134.667 508.02 134.013C508.805 133.359 510.047 133.032 511.747 133.032C513.709 133.032 515.115 133.49 515.965 134.405C516.881 135.321 517.241 136.465 517.044 137.839C516.652 139.931 516.227 143.626 515.769 148.923C515.573 151.539 515.475 154.907 515.475 159.027V163.637C515.475 166.384 515.638 168.379 515.965 169.621C516.292 170.798 517.175 171.452 518.614 171.583ZM503.9 163.539C503.965 160.727 503.998 156.64 503.998 151.278C503.998 148.269 503.017 145.948 501.055 144.313C499.159 142.678 496.968 141.861 494.483 141.861C490.886 141.861 488.009 143.43 485.851 146.569C483.693 149.708 482.614 153.468 482.614 157.85C482.614 162.101 483.562 165.632 485.458 168.444C487.355 171.256 490.134 172.662 493.796 172.662C496.804 172.662 499.224 171.877 501.055 170.308C502.886 168.738 503.834 166.482 503.9 163.539ZM578.96 164.128C579.418 167.528 579.81 170.7 580.137 173.643C580.464 176.52 580.628 178.94 580.628 180.902C580.628 185.545 579.614 189.73 577.587 193.458C575.559 197.251 572.682 200.194 568.954 202.286C565.292 204.444 561.042 205.523 556.202 205.523C552.409 205.523 548.911 204.804 545.706 203.365C542.567 201.927 540.049 199.965 538.153 197.48C536.322 195.06 535.406 192.412 535.406 189.534C535.406 187.965 535.864 186.82 536.78 186.101C537.695 185.382 539.101 185.022 540.998 185.022C543.548 185.022 545.02 186.101 545.412 188.259C546.393 193.294 549.892 195.812 555.908 195.812C560.028 195.812 563.2 194.537 565.423 191.987C567.646 189.501 568.758 185.709 568.758 180.608C568.758 179.234 568.66 177.763 568.464 176.193C566.96 177.632 564.998 178.809 562.578 179.725C560.159 180.64 557.445 181.098 554.437 181.098C549.793 181.098 545.673 180.019 542.077 177.861C538.48 175.638 535.701 172.662 533.739 168.934C531.777 165.142 530.796 160.989 530.796 156.477C530.796 151.833 531.777 147.615 533.739 143.822C535.766 139.964 538.578 136.956 542.175 134.798C545.772 132.574 549.892 131.463 554.535 131.463C559.243 131.463 562.938 132.607 565.619 134.896C566.077 133.588 566.633 132.378 567.287 131.266C568.006 129.828 569.314 129.108 571.211 129.108C572.715 129.108 574.153 129.533 575.527 130.384C576.9 131.168 577.619 132.215 577.685 133.523C577.685 133.653 577.619 134.046 577.489 134.7C577.096 135.746 576.475 137.708 575.625 140.585C576.867 148.825 577.979 156.673 578.96 164.128ZM555.614 171.681C558.164 171.681 560.584 171.027 562.873 169.719C565.161 168.411 566.567 166.94 567.091 165.305C566.306 158.7 565.358 152.062 564.246 145.392C563.657 144.28 562.546 143.267 560.911 142.351C559.341 141.436 557.543 140.978 555.516 140.978C551.788 140.978 548.714 142.482 546.295 145.49C543.875 148.498 542.665 152.226 542.665 156.673C542.665 160.858 543.777 164.422 546 167.365C548.224 170.242 551.428 171.681 555.614 171.681ZM615.924 181.785C610.169 181.785 605.264 180.673 601.21 178.45C597.22 176.161 594.212 173.087 592.185 169.229C590.158 165.305 589.144 160.923 589.144 156.084C589.144 151.245 590.256 146.896 592.479 143.038C594.768 139.114 597.874 136.073 601.798 133.915C605.787 131.692 610.267 130.58 615.237 130.58C619.749 130.58 623.804 131.463 627.401 133.228C630.997 134.994 633.842 137.512 635.935 140.782C638.027 144.051 639.074 147.844 639.074 152.16C639.074 154.711 638.649 156.542 637.799 157.654C637.014 158.7 635.51 159.223 633.286 159.223L599.64 159.517C599.64 161.349 600.261 163.245 601.504 165.207C602.746 167.169 604.578 168.836 606.997 170.21C609.417 171.518 612.262 172.172 615.531 172.172C617.755 172.172 619.619 171.91 621.123 171.387C622.692 170.798 623.967 170.112 624.948 169.327C625.929 168.542 627.074 167.463 628.382 166.09C629.363 165.109 630.442 164.618 631.619 164.618C632.861 164.618 634.038 165.109 635.15 166.09C636.327 167.071 636.916 168.182 636.916 169.425C636.916 170.34 636.556 171.354 635.837 172.466C634.267 174.82 631.88 176.978 628.676 178.94C625.537 180.837 621.286 181.785 615.924 181.785ZM627.989 151.376C628.512 151.376 628.839 151.278 628.97 151.081C629.166 150.885 629.264 150.526 629.264 150.002C629.264 146.994 627.924 144.509 625.243 142.547C622.561 140.585 619.226 139.604 615.237 139.604C612.163 139.604 609.417 140.291 606.997 141.664C604.643 142.972 602.812 144.607 601.504 146.569C600.261 148.466 599.64 150.166 599.64 151.67L627.989 151.376ZM675.91 130.286C679.964 130.286 683.332 131.626 686.013 134.307C688.694 136.989 690.035 140.422 690.035 144.607C690.035 148.662 688.727 151.801 686.111 154.024C683.561 156.248 680.258 157.359 676.204 157.359C674.242 157.359 672.869 157.065 672.084 156.477C671.299 155.823 670.907 154.809 670.907 153.436C670.907 152.128 671.168 151.212 671.692 150.689C672.28 150.1 673.098 149.741 674.144 149.61C678.133 149.152 680.128 147.387 680.128 144.313C680.128 142.874 679.735 141.697 678.95 140.782C678.231 139.866 677.152 139.408 675.713 139.408C673.686 139.408 671.822 140.455 670.122 142.547C668.487 144.575 667.147 147.027 666.1 149.904C665.119 152.782 664.498 155.365 664.236 157.654C663.844 161.643 663.648 166.94 663.648 173.545C663.648 176.815 663.223 179.038 662.373 180.215C661.522 181.327 660.018 181.883 657.86 181.883C655.768 181.883 654.231 181.458 653.25 180.608C652.269 179.757 651.746 178.417 651.68 176.586V159.714C651.68 156.117 651.582 152.912 651.386 150.1C651.255 147.288 650.994 143.888 650.601 139.899L650.013 133.817C649.882 132.378 650.34 131.234 651.386 130.384C652.432 129.468 653.871 129.01 655.702 129.01C658.776 129.01 660.443 130.449 660.705 133.326C660.836 135.615 660.967 138.427 661.097 141.762C662.34 138.362 664.236 135.615 666.787 133.523C669.337 131.365 672.378 130.286 675.91 130.286Z" fill="#554D4D"/>
</svg>
